<?xml version="1.0" standalone="no"?><!DOCTYPE svg PUBLIC "-//W3C//DTD SVG 1.1//EN" "http://www.w3.org/Graphics/SVG/1.1/DTD/svg11.dtd"><svg width="200" height="200" viewBox="0 0 200 200" version="1.1" xmlns="http://www.w3.org/2000/svg" xmlns:xlink="http://www.w3.org/1999/xlink"><defs><style type="text/css"><![CDATA[
@font-face { font-family: ifont; src: url(http://at.alicdn.com/t/font_1442373896_4754455.eot?#iefix) format(embedded-opentype), url(http://at.alicdn.com/t/font_1442373896_4754455.woff) format(woff), url(http://at.alicdn.com/t/font_1442373896_4754455.ttf) format(truetype), url(http://at.alicdn.com/t/font_1442373896_4754455.svg#ifont) format(svg); }

]]></style></defs><g class="transform-group"><g transform="scale(0.1953125, 0.1953125)"><path d="M950.841282 588.828806c3.258207-18.512632-9.072633-36.161594-27.620058-39.418778-18.513656-3.272533-36.162618 9.091052-39.418778 27.604708l-0.332575-0.066515c-30.912034 175.512363-184.104041 309.427328-368.372835 309.459051-206.42235-0.031722-374.389876-167.95013-374.389876-374.406249 0-206.438723 167.95013-374.388852 374.389876-374.388852 115.89966 0 219.368196 53.147454 288.037159 136.142703l-83.825151 0c-18.812461 0-34.035164 15.239076-34.035164 34.018791 0.032746 18.812461 15.222703 34.035164 34.035164 34.050514l128.862903 0 7.2798-0.016373 34.034141 0.016373c18.813484 0 34.037211-15.239076 34.037211-34.035164L923.523099 137.611148c0-18.795065-15.223726-34.035164-34.037211-34.051537-18.811438 0.017396-34.034141 15.256472-34.034141 34.051537l0 92.202958C774.349615 131.977847 652.101363 69.540819 515.096013 69.524446 270.732539 69.540819 72.636832 267.63755 72.636832 512c0 244.38087 198.113103 442.443831 442.459181 442.475554 217.340003-0.031722 397.556505-156.88205 434.881598-363.452779C950.176133 590.258365 950.708252 589.626985 950.841282 588.828806z" fill="#bbb"></path></g></g></svg>