<?xml version="1.0" encoding="utf-8"?>
<!-- Generator: Adobe Illustrator 20.1.0, SVG Export Plug-In . SVG Version: 6.00 Build 0)  -->
<svg version="1.1" id="图层_1" xmlns="http://www.w3.org/2000/svg" xmlns:xlink="http://www.w3.org/1999/xlink" x="0px" y="0px"
	 viewBox="0 0 200 200" enable-background="new 0 0 200 200" xml:space="preserve">
<g>
	<g transform="scale(0.1953125, 0.1953125)">
		<path fill="#F4CF5C" d="M808.229,120.228H214.151c-45.569,0-82.51,36.941-82.51,82.51v577.575c0,45.569,36.941,82.51,82.51,82.51
			h594.077c45.569,0,82.51-36.941,82.51-82.51l0-577.574C890.739,157.171,853.798,120.228,808.229,120.228z M605.855,468.434
			l-85.709,95.229c-4.051,4.109-11.214,3.426-15.479,0.697c-1.392-0.527-4.383-3.529-6.104-4.542l-98.181-86.181
			c-5.188-3.057-6.657-9.337-3.279-14.032c3.376-4.692,10.32-6.02,15.508-2.968l98.153,86.158l81.352-90.387
			c4.891-3.432,11.933-2.626,15.726,1.799C611.637,458.635,610.746,465.004,605.855,468.434z"/>
	</g>
</g>
</svg>
